<svg width="36" height="36" viewBox="0 0 36 36" fill="none" xmlns="http://www.w3.org/2000/svg">
<path d="M35.6625 10.8001C35.6625 10.8001 35.325 8.3251 34.2 7.2001C32.85 5.7376 31.275 5.7376 30.6 5.6251C25.5375 5.2876 18 5.2876 18 5.2876C18 5.2876 10.4625 5.2876 5.4 5.6251C4.725 5.7376 3.15 5.7376 1.8 7.2001C0.675 8.3251 0.3375 10.8001 0.3375 10.8001C0.3375 10.8001 0 13.7251 0 16.6501V19.3501C0 22.2751 0.3375 25.2001 0.3375 25.2001C0.3375 25.2001 0.675 27.6751 1.8 28.8001C3.15 30.2626 4.95 30.1501 5.7375 30.3751C8.6625 30.6001 18 30.7126 18 30.7126C18 30.7126 25.5375 30.7126 30.6 30.3751C31.275 30.2626 32.85 30.2626 34.2 28.8001C35.325 27.6751 35.6625 25.2001 35.6625 25.2001C35.6625 25.2001 36 22.2751 36 19.3501V16.6501C36 13.7251 35.6625 10.8001 35.6625 10.8001ZM14.2875 22.7251V12.6001L23.9625 17.6626L14.2875 22.7251Z" fill="white"/>
</svg>
