<svg width="32" height="32" viewBox="0 0 32 32" fill="none" xmlns="http://www.w3.org/2000/svg">
<path d="M28.5298 27.4703L22.1073 21.0478C23.9388 18.9416 24.881 16.2066 24.7352 13.4193C24.5895 10.632 23.3672 8.01014 21.326 6.10644C19.2849 4.20275 16.5843 3.16592 13.7936 3.21453C11.0029 3.26313 8.34012 4.39337 6.3665 6.36699C4.39288 8.34061 3.26264 11.0034 3.21404 13.7941C3.16543 16.5848 4.20226 19.2854 6.10596 21.3265C8.00965 23.3677 10.6315 24.5899 13.4188 24.7357C16.2061 24.8815 18.9411 23.9393 21.0473 22.1078L27.4698 28.5303C27.612 28.6628 27.8001 28.7349 27.9944 28.7315C28.1887 28.7281 28.3741 28.6494 28.5115 28.512C28.6489 28.3745 28.7276 28.1892 28.731 27.9949C28.7344 27.8006 28.6623 27.6125 28.5298 27.4703ZM4.74984 14.0003C4.74984 12.1709 5.29235 10.3825 6.30875 8.86131C7.32515 7.34015 8.7698 6.15456 10.46 5.45445C12.1502 4.75434 14.0101 4.57115 15.8044 4.92807C17.5988 5.28498 19.2469 6.16596 20.5406 7.45959C21.8342 8.75323 22.7152 10.4014 23.0721 12.1957C23.429 13.9901 23.2458 15.8499 22.5457 17.5402C21.8456 19.2304 20.66 20.675 19.1389 21.6914C17.6177 22.7078 15.8293 23.2503 13.9998 23.2503C11.5475 23.2474 9.19646 22.2718 7.46239 20.5378C5.72833 18.8037 4.75282 16.4527 4.74984 14.0003Z" fill="white"/>
</svg>
