<svg width="15" height="15" viewBox="0 0 15 15" fill="none" xmlns="http://www.w3.org/2000/svg">
<g clip-path="url(#clip0_221_11)">
<path d="M14.3182 0H8.86366C8.4871 0 8.18183 0.305273 8.18183 0.681826C8.18183 1.05838 8.4871 1.36365 8.86366 1.36365H12.6722L5.6543 8.38154C5.38802 8.64782 5.38802 9.07948 5.6543 9.34576C5.71753 9.40917 5.79268 9.45945 5.87541 9.49372C5.95814 9.52799 6.04683 9.54557 6.13638 9.54545C6.22594 9.54558 6.31464 9.528 6.39739 9.49372C6.48013 9.45945 6.55528 9.40915 6.61852 9.34573L13.6364 2.32787V6.13638C13.6364 6.51293 13.9417 6.8182 14.3182 6.8182C14.6948 6.8182 15.0001 6.51293 15.0001 6.13638V0.681826C15 0.305273 14.6948 0 14.3182 0Z" fill="#565656"/>
<path d="M11.5909 6.81819C11.2143 6.81819 10.9091 7.12347 10.9091 7.50002V13.6364H1.36362V4.09092H7.5C7.87655 4.09092 8.18183 3.78564 8.18183 3.40909C8.18183 3.03254 7.87655 2.72729 7.5 2.72729H0.681826C0.305273 2.72729 0 3.03257 0 3.40912V14.3182C0 14.6947 0.305273 15 0.681826 15H11.5909C11.9675 15 12.2728 14.6947 12.2728 14.3182V7.50002C12.2727 7.12347 11.9675 6.81819 11.5909 6.81819Z" fill="#565656"/>
</g>
<defs>
<clipPath id="clip0_221_11">
<rect width="15" height="15" fill="white"/>
</clipPath>
</defs>
</svg>
