<svg width="19" height="19" viewBox="0 0 19 19" fill="none" xmlns="http://www.w3.org/2000/svg">
<path d="M14.4226 11.3144L13.8564 10.4394C13.6819 10.1697 13.5891 9.85535 13.5891 9.53415V5.8588C13.5891 4.39171 13.6954 1.26611 9.50673 1.26611C6.09925 1.26611 5.04555 3.08206 4.71975 4.20524C4.59039 4.65115 4.89436 5.10519 5.35622 5.15284L6.67692 5.2891C6.98779 5.32116 7.28588 5.15616 7.42071 4.87423C7.67672 4.33874 8.12299 3.54126 9.50008 3.54126C10.0336 3.54126 10.7838 3.7669 10.7838 4.42664C10.7838 5.3839 10.7825 5.83758 10.7825 5.83758C10.7861 6.03735 10.6251 6.20127 10.4253 6.20127H9.1344C8.16036 6.20127 4.45914 6.70076 4.45914 10.402C4.45914 14.1032 8.38661 13.6774 8.64738 13.6162C9.13388 13.5022 10.0454 13.1693 10.902 12.3525C11.046 12.2152 11.2756 12.2272 11.4006 12.3819L12.0923 13.2379C12.3612 13.5706 12.8559 13.6056 13.1689 13.3141L14.306 12.255C14.5678 12.0112 14.6169 11.6147 14.4226 11.3144ZM8.74473 11.1081C7.42981 11.1081 7.46729 9.91927 7.7707 9.35489C8.05457 8.82682 8.80461 7.89072 10.8182 7.82696L10.8358 8.80928C10.849 9.53947 10.513 10.2409 9.91572 10.6611C9.54564 10.9216 9.14186 11.1081 8.74473 11.1081Z" fill="white"/>
<path d="M0.0784196 14.4876C-0.121551 14.3069 0.0960596 13.9869 0.337804 14.106C2.03682 14.9429 5.23538 16.2369 8.771 16.2369C12.3841 16.2369 15.4068 15.3739 16.9281 14.8412C17.1755 14.7546 17.3537 15.0784 17.1501 15.2434C15.9431 16.221 13.3511 17.7333 8.86599 17.7333C4.39771 17.7333 1.49524 15.768 0.0784196 14.4876Z" fill="white"/>
<path d="M15.3358 13.9611C15.8072 13.6121 16.9781 13.0105 18.7282 13.5365C18.889 13.5849 18.9987 13.7337 18.9999 13.9016C19.0041 14.4757 18.8804 15.8237 17.7565 16.9439C17.6785 17.0217 17.5471 16.9454 17.576 16.839C17.7679 16.1322 18.1581 14.6161 18.0343 14.4045C17.8924 14.162 16.1187 14.1505 15.4001 14.1558C15.2952 14.1567 15.2516 14.0235 15.3358 13.9611Z" fill="white"/>
</svg>
