<svg width="23" height="23" viewBox="0 0 23 23" fill="none" xmlns="http://www.w3.org/2000/svg">
<path d="M16.3395 19.435C15.4004 20.3454 14.375 20.2017 13.3879 19.7704C12.3433 19.3296 11.385 19.3104 10.2829 19.7704C8.90287 20.3646 8.17454 20.1921 7.35037 19.435C2.6737 14.6146 3.3637 7.27375 8.67287 7.00542C9.96662 7.0725 10.8675 7.71458 11.6245 7.77208C12.7554 7.54208 13.8383 6.88083 15.0458 6.96708C16.4929 7.08208 17.5854 7.65708 18.3041 8.69208C15.3141 10.4842 16.0233 14.4229 18.7641 15.525C18.2179 16.9625 17.5087 18.3904 16.33 19.4446L16.3395 19.435ZM11.5287 6.94792C11.385 4.81083 13.1195 3.0475 15.1129 2.875C15.3908 5.3475 12.8704 7.1875 11.5287 6.94792Z" fill="white"/>
</svg>
