<svg width="89" height="45" viewBox="0 0 89 45" fill="none" xmlns="http://www.w3.org/2000/svg">
<path d="M7.60575 1.19155L12.3151 13.1087C13.1553 15.2533 13.509 15.8945 14.1944 16.9779V17H9.7725V16.9779C10.5021 15.8503 10.4358 15.2533 9.59562 13.1087L9.13132 11.8927H3.44912L2.98481 13.1087C2.18886 15.2533 2.12253 15.8503 2.85215 16.9779V17H0.375865V16.9779C1.08338 15.8724 1.41502 15.2533 2.21097 13.1087L6.63292 1.50108L7.60575 1.19155ZM6.23494 4.44168L3.71443 11.1851H8.84389L6.23494 4.44168ZM15.5471 17V16.9779C16.0777 16.1598 16.1662 15.6734 16.1662 13.9931V4.17636C16.1662 2.80556 15.9009 1.9875 15.4587 1.58952V1.5453L18.3993 0.594582H18.4435V13.9931C18.4435 15.6734 18.5319 16.1598 19.0626 16.9779V17H15.5471ZM29.1467 15.4965C29.412 15.4965 29.6552 15.4302 29.8763 15.3418C29.6994 16.5357 28.9698 17.2432 27.9085 17.2432C26.8694 17.2432 26.2282 16.5136 26.184 15.2754C25.4543 16.3146 24.4373 17.2432 23.0223 17.2432C21.563 17.2432 20.6344 16.3146 20.6344 14.9217C20.6344 12.5117 23.3318 11.7821 26.184 11.2515V10.2565C26.184 8.46565 25.3659 7.75813 23.973 7.75813C22.6464 7.75813 21.7178 8.48776 21.2093 9.12894C21.1651 7.9129 22.2263 6.16623 24.7247 6.16623C27.002 6.16623 28.3507 7.64759 28.3507 10.2344V14.5679C28.3507 15.0543 28.5276 15.4965 29.1467 15.4965ZM24.2383 15.585C24.9458 15.585 25.587 15.2754 26.184 14.8332V11.76C23.973 12.3348 22.757 12.9318 22.757 14.1921C22.757 15.0543 23.3097 15.585 24.2383 15.585ZM33.8567 17.2432C32.5744 17.2432 31.6236 16.8673 31.0488 16.5136L30.9382 14.4132L30.9825 14.3911C31.9111 15.585 33.0166 16.2925 34.2105 16.2925C35.2939 16.2925 35.8687 15.6734 35.8687 14.7006C35.8687 13.6835 35.2939 13.3519 33.9231 12.5559C32.2648 11.561 31.292 10.964 31.292 9.35003C31.292 7.36016 32.7512 6.14412 35.2275 6.14412C36.1119 6.14412 36.8415 6.321 37.5048 6.5421L37.5491 8.55408L37.4827 8.57619C36.6647 7.62548 35.8024 7.0064 34.7632 7.0064C33.8567 7.0064 33.2377 7.49282 33.2377 8.39932C33.2377 9.28371 33.8567 9.65957 35.1612 10.3671C37.129 11.4726 37.9028 12.1801 37.9028 13.6835C37.9028 15.9387 36.2225 17.2432 33.8567 17.2432ZM45.8982 6.40944V7.36016H42.6923V14.5016C42.6923 15.0101 42.825 15.784 44.3284 15.784C44.9696 15.784 45.4782 15.6292 45.8761 15.386C45.5445 16.5799 44.4832 17.2653 43.0461 17.2653C41.4321 17.2653 40.415 16.3146 40.415 14.7448V7.36016H39.1548V7.16117L42.6481 4.08792H42.6923V6.40944H45.8982ZM55.4451 15.4965C55.7105 15.4965 55.9537 15.4302 56.1748 15.3418C55.9979 16.5357 55.2683 17.2432 54.207 17.2432C53.1678 17.2432 52.5267 16.5136 52.4824 15.2754C51.7528 16.3146 50.7358 17.2432 49.3208 17.2432C47.8615 17.2432 46.9329 16.3146 46.9329 14.9217C46.9329 12.5117 49.6303 11.7821 52.4824 11.2515V10.2565C52.4824 8.46565 51.6644 7.75813 50.2715 7.75813C48.9449 7.75813 48.0163 8.48776 47.5078 9.12894C47.4635 7.9129 48.5248 6.16623 51.0232 6.16623C53.3005 6.16623 54.6492 7.64759 54.6492 10.2344V14.5679C54.6492 15.0543 54.8261 15.4965 55.4451 15.4965ZM50.5368 15.585C51.2443 15.585 51.8855 15.2754 52.4824 14.8332V11.76C50.2715 12.3348 49.0554 12.9318 49.0554 14.1921C49.0554 15.0543 49.6082 15.585 50.5368 15.585ZM59.2266 4.48589C58.4749 4.48589 57.8337 3.86682 57.8337 3.11509C57.8337 2.34125 58.4749 1.72218 59.2266 1.72218C59.9562 1.72218 60.5974 2.34125 60.5974 3.11509C60.5974 3.86682 59.9562 4.48589 59.2266 4.48589ZM57.4578 17V16.9779C57.9885 16.1598 58.0769 15.6734 58.0769 13.9931V9.70379C58.0769 8.33299 57.8116 7.53704 57.3694 7.11695V7.09484L60.3321 6.12201L60.3542 6.14412V13.9931C60.3542 15.6734 60.4426 16.1598 60.9733 16.9779V17H57.4578ZM68.6016 6.23256C69.5303 6.23256 70.0388 6.69687 70.0388 7.42649C70.0388 7.9129 69.7071 8.39932 69.2649 8.64252C68.9333 8.26666 68.4911 7.97923 67.872 7.97923C67.0761 7.97923 66.3907 8.50987 65.86 9.2616V13.9931C65.86 15.6734 65.9485 16.1598 66.4791 16.9779V17H62.9637V16.9779C63.4943 16.1598 63.5827 15.6734 63.5827 13.9931V9.70379C63.5827 8.33299 63.3174 7.53704 62.8752 7.11695V7.09484L65.8379 6.12201L65.86 6.14412V8.62041C66.6118 6.98429 67.6288 6.23256 68.6016 6.23256ZM9.0871 40.2653C3.89131 40.2653 0.994938 36.6393 0.994938 32.3721C0.994938 27.9502 4.13452 24.2579 9.10921 24.2579C11.1212 24.2579 12.3593 24.5232 13.6638 24.9433L13.8849 27.6186H13.8186C12.5362 25.9603 11.077 25.1202 9.13132 25.1202C5.66009 25.1202 3.69232 28.2818 3.69232 32.2616C3.69232 36.3519 5.81486 39.403 9.17554 39.403C11.2317 39.403 12.5141 38.4744 13.8407 36.573L13.9291 36.5951L13.5975 39.0935C12.7131 39.5799 11.3865 40.2653 9.0871 40.2653ZM24.0511 38.4965C24.3164 38.4965 24.5596 38.4302 24.7807 38.3418C24.6038 39.5357 23.8742 40.2432 22.8129 40.2432C21.7738 40.2432 21.1326 39.5136 21.0884 38.2754C20.3587 39.3146 19.3417 40.2432 17.9267 40.2432C16.4674 40.2432 15.5388 39.3146 15.5388 37.9217C15.5388 35.5117 18.2362 34.7821 21.0884 34.2515V33.2565C21.0884 31.4656 20.2703 30.7581 18.8774 30.7581C17.5508 30.7581 16.6222 31.4878 16.1137 32.1289C16.0695 30.9129 17.1307 29.1662 19.6291 29.1662C21.9064 29.1662 23.2551 30.6476 23.2551 33.2344V37.5679C23.2551 38.0543 23.432 38.4965 24.0511 38.4965ZM19.1427 38.585C19.8502 38.585 20.4914 38.2754 21.0884 37.8332V34.76C18.8774 35.3348 17.6614 35.9318 17.6614 37.1921C17.6614 38.0543 18.2141 38.585 19.1427 38.585ZM42.027 32.7701V36.9931C42.027 38.6734 42.1154 39.1598 42.6681 39.9779V40H39.1527V39.9779C39.6612 39.1598 39.7497 38.6734 39.7497 36.9931V33.146C39.7497 31.5762 39.1306 30.7581 37.605 30.7581C36.6985 30.7581 35.9468 31.0898 35.3498 31.4656C35.4383 31.8636 35.4825 32.2837 35.4825 32.7701V36.9931C35.4825 38.6734 35.5709 39.1598 36.1237 39.9779V40H32.6082V39.9779C33.1167 39.1598 33.2052 38.6734 33.2052 36.9931V33.146C33.2052 31.5983 32.5861 30.7581 31.0605 30.7581C30.1761 30.7581 29.4907 31.0898 28.9601 31.4435V36.9931C28.9601 38.6734 29.0264 39.1598 29.535 39.9779V40H26.0637V39.9779C26.5944 39.1598 26.6828 38.6734 26.6828 36.9931V32.7038C26.6828 31.333 26.4175 30.537 25.9753 30.117V30.0948L28.938 29.122L28.9601 29.1441V31.0235C29.9108 30.0727 30.9942 29.1441 32.5419 29.1441C33.9127 29.1441 34.8413 29.7853 35.2614 31.0677C36.2784 30.0948 37.406 29.1441 39.0643 29.1441C40.9657 29.1441 42.027 30.338 42.027 32.7701ZM50.8031 29.1441C53.5669 29.1441 55.1588 31.4878 55.1588 34.2957C55.1588 37.789 52.7046 40.2653 49.2112 40.2653C48.5701 40.2653 47.951 40.1769 47.4204 40.0663V41.8793C47.4204 43.5597 47.5088 44.0461 48.0394 44.8641V44.8862H44.524V44.8641C45.0546 44.0461 45.1431 43.5597 45.1431 41.8793V32.7038C45.1431 31.333 44.8777 30.537 44.4355 30.117V30.0948L47.3982 29.122L47.4204 29.1441V30.736C48.3047 29.8516 49.2776 29.1441 50.8031 29.1441ZM49.3218 39.4251C51.4885 39.4251 52.7709 37.5016 52.7709 35.0474C52.7709 32.5711 51.4664 30.5591 49.366 30.5591C48.5922 30.5591 48.0173 30.8245 47.4204 31.2224V38.8282C47.951 39.204 48.5701 39.4251 49.3218 39.4251ZM63.0182 29.1441C65.8483 29.1441 67.4623 31.5541 67.4623 34.4505C67.4623 37.8332 65.1629 40.2653 61.758 40.2653C60.1882 40.2653 58.8616 39.9779 57.4687 39.3146V27.1764C57.4687 25.8056 57.2034 24.9875 56.7612 24.5895V24.5453L59.7018 23.5946H59.746V30.6918C60.5198 29.8295 61.5369 29.1441 63.0182 29.1441ZM61.6253 39.4473C63.77 39.4473 65.0745 37.4132 65.0745 34.8042C65.0745 32.4385 63.9469 30.4928 61.758 30.4928C60.8515 30.4928 60.3209 30.736 59.746 31.134V38.8945C60.1882 39.2262 60.7631 39.4473 61.6253 39.4473ZM77.4701 33.3671L70.9698 33.4113C70.9698 33.6324 70.9477 33.8535 70.9477 34.0746C70.9477 36.4846 72.429 38.3418 74.6621 38.3418C76.254 38.3418 77.2269 37.7227 77.8901 36.9931C77.7575 38.8724 76.254 40.2653 73.9104 40.2653C70.815 40.2653 69.0684 37.8111 69.0684 35.1138C69.0684 31.8194 71.213 29.1441 74.2863 29.1441C77.1826 29.1441 78.1112 31.2667 78.1112 32.549C78.1112 33.4113 77.7354 33.3671 77.4701 33.3671ZM73.7998 30.0285C72.4512 30.0285 71.4341 31.1119 71.0804 32.748H75.4581C75.8561 32.748 76.0993 32.748 76.0329 32.1732C76.0108 31.2888 75.3475 30.0285 73.7998 30.0285ZM79.8035 40V39.9779C80.3341 39.1598 80.4226 38.6734 80.4226 36.9931V27.1764C80.4226 25.8056 80.1573 24.9875 79.7151 24.5895V24.5453L82.6557 23.5946H82.6999V36.9931C82.6999 38.6734 82.7883 39.1598 83.3189 39.9779V40H79.8035ZM85.2446 40V39.9779C85.7752 39.1598 85.8636 38.6734 85.8636 36.9931V27.1764C85.8636 25.8056 85.5983 24.9875 85.1561 24.5895V24.5453L88.0967 23.5946H88.1409V36.9931C88.1409 38.6734 88.2294 39.1598 88.76 39.9779V40H85.2446Z" fill="#343434"/>
</svg>
