<svg width="124" height="62" viewBox="0 0 124 62" fill="none" xmlns="http://www.w3.org/2000/svg">
<path d="M10.1433 0.836673L16.7504 17.5391C17.9291 20.545 18.4254 21.4436 19.387 22.962V22.993H13.1832V22.962C14.2068 21.3816 14.1137 20.545 12.935 17.5391L12.2836 15.8348H4.31167L3.66027 17.5391C2.54358 20.545 2.45052 21.3816 3.47415 22.962V22.993H0V22.962C0.992615 21.4126 1.4579 20.545 2.57459 17.5391L8.77844 1.2705L10.1433 0.836673ZM8.22009 5.39189L4.6839 14.8432H11.8804L8.22009 5.39189Z" fill="white"/>
<path d="M21.2847 22.993V22.962C22.0292 21.8155 22.1533 21.1337 22.1533 18.7786V5.02003C22.1533 3.09879 21.7811 1.95224 21.1607 1.39445V1.33248L25.2862 0H25.3483V18.7786C25.3483 21.1337 25.4723 21.8155 26.2168 22.962V22.993H21.2847Z" fill="white"/>
<path d="M40.3645 20.8858C40.7367 20.8858 41.0779 20.7929 41.3881 20.6689C41.1399 22.3423 40.1163 23.3339 38.6274 23.3339C37.1695 23.3339 36.2699 22.3113 36.2079 20.5759C35.1843 22.0324 33.7574 23.3339 31.7722 23.3339C29.7249 23.3339 28.4221 22.0324 28.4221 20.0801C28.4221 16.7025 32.2064 15.6799 36.2079 14.9362V13.5417C36.2079 11.0317 35.0602 10.0401 33.106 10.0401C31.2448 10.0401 29.942 11.0627 29.2286 11.9613C29.1665 10.257 30.6555 7.80894 34.1606 7.80894C37.3556 7.80894 39.2478 9.88513 39.2478 13.5107V19.5843C39.2478 20.2661 39.4959 20.8858 40.3645 20.8858ZM33.4782 21.0098C34.4708 21.0098 35.3704 20.5759 36.2079 19.9562V15.6489C33.106 16.4546 31.3999 17.2912 31.3999 19.0575C31.3999 20.2661 32.1754 21.0098 33.4782 21.0098Z" fill="white"/>
<path d="M46.9725 23.3339C45.1734 23.3339 43.8396 22.8071 43.0331 22.3113L42.878 19.3674L42.94 19.3364C44.2428 21.0098 45.7938 22.0014 47.4688 22.0014C48.9888 22.0014 49.7953 21.1337 49.7953 19.7703C49.7953 18.3448 48.9888 17.88 47.0656 16.7644C44.7392 15.37 43.3743 14.5333 43.3743 12.2712C43.3743 9.48229 45.4216 7.77795 48.8957 7.77795C50.1365 7.77795 51.1601 8.02586 52.0907 8.33574L52.1527 11.1556L52.0597 11.1866C50.912 9.85414 49.7022 8.98648 48.2443 8.98648C46.9725 8.98648 46.104 9.66821 46.104 10.9387C46.104 12.1782 46.9725 12.705 48.8027 13.6966C51.5634 15.246 52.649 16.2376 52.649 18.3448C52.649 21.5056 50.2916 23.3339 46.9725 23.3339Z" fill="white"/>
<path d="M63.8664 8.14981V9.48229H59.3686V19.4914C59.3686 20.2041 59.5547 21.2887 61.664 21.2887C62.5636 21.2887 63.277 21.0717 63.8354 20.7309C63.3701 22.4042 61.8811 23.3649 59.8649 23.3649C57.6005 23.3649 56.1736 22.0324 56.1736 19.8322V9.48229H54.4055V9.2034L59.3065 4.89608H59.3686V8.14981H63.8664Z" fill="white"/>
<path d="M77.2604 20.8858C77.6326 20.8858 77.9738 20.7929 78.284 20.6689C78.0359 22.3423 77.0122 23.3339 75.5233 23.3339C74.0654 23.3339 73.1658 22.3113 73.1038 20.5759C72.0802 22.0324 70.6533 23.3339 68.6681 23.3339C66.6208 23.3339 65.318 22.0324 65.318 20.0801C65.318 16.7025 69.1023 15.6799 73.1038 14.9362V13.5417C73.1038 11.0317 71.9561 10.0401 70.0019 10.0401C68.1407 10.0401 66.8379 11.0627 66.1245 11.9613C66.0624 10.257 67.5514 7.80894 71.0565 7.80894C74.2515 7.80894 76.1437 9.88513 76.1437 13.5107V19.5843C76.1437 20.2661 76.3918 20.8858 77.2604 20.8858ZM70.3741 21.0098C71.3667 21.0098 72.2663 20.5759 73.1038 19.9562V15.6489C70.0019 16.4546 68.2958 17.2912 68.2958 19.0575C68.2958 20.2661 69.0713 21.0098 70.3741 21.0098Z" fill="white"/>
<path d="M82.5656 5.45386C81.511 5.45386 80.6114 4.5862 80.6114 3.53262C80.6114 2.44804 81.511 1.58038 82.5656 1.58038C83.5893 1.58038 84.4888 2.44804 84.4888 3.53262C84.4888 4.5862 83.5893 5.45386 82.5656 5.45386ZM80.0841 22.993V22.962C80.8285 21.8155 80.9526 21.1337 80.9526 18.7786V12.767C80.9526 10.8458 80.5804 9.73019 79.96 9.14142V9.11043L84.1166 7.74697L84.1476 7.77795V18.7786C84.1476 21.1337 84.2717 21.8155 85.0161 22.962V22.993H80.0841Z" fill="white"/>
<path d="M95.7185 7.90191C97.0213 7.90191 97.7347 8.55265 97.7347 9.57525C97.7347 10.257 97.2695 10.9387 96.6491 11.2796C96.1838 10.7528 95.5634 10.3499 94.6949 10.3499C93.5782 10.3499 92.6166 11.0937 91.8721 12.1472V18.7786C91.8721 21.1337 91.9962 21.8155 92.7406 22.962V22.993H87.8086V22.962C88.5531 21.8155 88.6771 21.1337 88.6771 18.7786V12.767C88.6771 10.8458 88.3049 9.73019 87.6845 9.14142V9.11043L91.8411 7.74697L91.8721 7.77795V11.2486C92.9268 8.95549 94.3536 7.90191 95.7185 7.90191Z" fill="white"/>
<path d="M12.2216 55.5235C4.93205 55.5235 0.868538 50.4415 0.868538 44.4609C0.868538 38.2633 5.27327 33.0883 12.2526 33.0883C15.0753 33.0883 16.8124 33.4602 18.6425 34.0489L18.9527 37.7985H18.8597C17.0606 35.4744 15.0133 34.2968 12.2836 34.2968C7.41359 34.2968 4.65288 38.7281 4.65288 44.3059C4.65288 50.0387 7.63072 54.315 12.3456 54.315C15.2304 54.315 17.0295 53.0135 18.8907 50.3486L19.0148 50.3796L18.5495 53.8812C17.3087 54.5629 15.4476 55.5235 12.2216 55.5235Z" fill="white"/>
<path d="M33.2155 53.0445C33.5877 53.0445 33.929 52.9515 34.2391 52.8276C33.991 54.5009 32.9674 55.4925 31.4784 55.4925C30.0205 55.4925 29.121 54.4699 29.0589 52.7346C28.0353 54.1911 26.6084 55.4925 24.6232 55.4925C22.5759 55.4925 21.2731 54.1911 21.2731 52.2388C21.2731 48.8611 25.0575 47.8385 29.0589 47.0948V45.7004C29.0589 43.1904 27.9112 42.1988 25.957 42.1988C24.0959 42.1988 22.7931 43.2214 22.0796 44.12C22.0176 42.4157 23.5065 39.9676 27.0117 39.9676C30.2066 39.9676 32.0988 42.0438 32.0988 45.6694V51.743C32.0988 52.4247 32.347 53.0445 33.2155 53.0445ZM26.3292 53.1685C27.3219 53.1685 28.2214 52.7346 29.0589 52.1149V47.8076C25.957 48.6132 24.251 49.4499 24.251 51.2162C24.251 52.4247 25.0264 53.1685 26.3292 53.1685Z" fill="white"/>
<path d="M58.4351 45.0187V50.9373C58.4351 53.2924 58.5592 53.9741 59.3347 55.1207V55.1517H54.4026V55.1207C55.116 53.9741 55.2401 53.2924 55.2401 50.9373V45.5454C55.2401 43.3453 54.3716 42.1988 52.2313 42.1988C50.9595 42.1988 49.9048 42.6636 49.0673 43.1904C49.1914 43.7481 49.2534 44.3369 49.2534 45.0187V50.9373C49.2534 53.2924 49.3775 53.9741 50.153 55.1207V55.1517H45.2209V55.1207C45.9344 53.9741 46.0584 53.2924 46.0584 50.9373V45.5454C46.0584 43.3763 45.1899 42.1988 43.0496 42.1988C41.8088 42.1988 40.8472 42.6636 40.1027 43.1594V50.9373C40.1027 53.2924 40.1958 53.9741 40.9092 55.1207V55.1517H36.0392V55.1207C36.7837 53.9741 36.9078 53.2924 36.9078 50.9373V44.9257C36.9078 43.0044 36.5355 41.8889 35.9151 41.3001V41.2691L40.0717 39.9057L40.1027 39.9366V42.5706C41.4366 41.2381 42.9565 39.9366 45.1279 39.9366C47.051 39.9366 48.3539 40.8353 48.9432 42.6326C50.3701 41.2691 51.9521 39.9366 54.2785 39.9366C56.9462 39.9366 58.4351 41.61 58.4351 45.0187Z" fill="white"/>
<path d="M70.7478 39.9366C74.6252 39.9366 76.8586 43.2214 76.8586 47.1568C76.8586 52.0529 73.4154 55.5235 68.5144 55.5235C67.6148 55.5235 66.7463 55.3996 66.0018 55.2446V57.7857C66.0018 60.1407 66.1259 60.8225 66.8704 61.969V62H61.9383V61.969C62.6828 60.8225 62.8069 60.1407 62.8069 57.7857V44.9257C62.8069 43.0044 62.4346 41.8889 61.8143 41.3001V41.2691L65.9708 39.9057L66.0018 39.9366V42.1678C67.2426 40.9283 68.6075 39.9366 70.7478 39.9366ZM68.6695 54.346C71.7094 54.346 73.5085 51.6501 73.5085 48.2104C73.5085 44.7398 71.6784 41.9199 68.7315 41.9199C67.6459 41.9199 66.8394 42.2917 66.0018 42.8495V53.5093C66.7463 54.0361 67.6148 54.346 68.6695 54.346Z" fill="white"/>
<path d="M87.8852 39.9366C91.8556 39.9366 94.12 43.3143 94.12 47.3737C94.12 52.1149 90.894 55.5235 86.1171 55.5235C83.9147 55.5235 82.0536 55.1207 80.0994 54.1911V37.1787C80.0994 35.2575 79.7271 34.1109 79.1067 33.5531V33.4912L83.2323 32.1587H83.2943V42.1058C84.38 40.8973 85.8069 39.9366 87.8852 39.9366ZM85.931 54.377C88.9398 54.377 90.77 51.5261 90.77 47.8695C90.77 44.5538 89.188 41.8269 86.1171 41.8269C84.8453 41.8269 84.1008 42.1678 83.2943 42.7255V53.6023C83.9147 54.0671 84.7212 54.377 85.931 54.377Z" fill="white"/>
<path d="M108.161 45.8553L99.0409 45.9173C99.0409 46.2272 99.0099 46.5371 99.0099 46.8469C99.0099 50.2246 101.088 52.8276 104.221 52.8276C106.455 52.8276 107.819 51.9599 108.75 50.9373C108.564 53.5713 106.455 55.5235 103.166 55.5235C98.8238 55.5235 96.3733 52.0839 96.3733 48.3034C96.3733 43.6862 99.3821 39.9366 103.694 39.9366C107.757 39.9366 109.06 42.9115 109.06 44.7088C109.06 45.9173 108.533 45.8553 108.161 45.8553ZM103.011 41.1762C101.119 41.1762 99.6923 42.6946 99.196 44.9877H105.338C105.896 44.9877 106.237 44.9877 106.144 44.182C106.113 42.9425 105.183 41.1762 103.011 41.1762Z" fill="white"/>
<path d="M111.434 55.1517V55.1207C112.179 53.9741 112.303 53.2924 112.303 50.9373V37.1787C112.303 35.2575 111.931 34.1109 111.31 33.5531V33.4912L115.436 32.1587H115.498V50.9373C115.498 53.2924 115.622 53.9741 116.366 55.1207V55.1517H111.434Z" fill="white"/>
<path d="M119.068 55.1517V55.1207C119.812 53.9741 119.936 53.2924 119.936 50.9373V37.1787C119.936 35.2575 119.564 34.1109 118.944 33.5531V33.4912L123.069 32.1587H123.131V50.9373C123.131 53.2924 123.256 53.9741 124 55.1207V55.1517H119.068Z" fill="white"/>
</svg>
